<svg xmlns="http://www.w3.org/2000/svg" version="1.1" xmlns:xlink="http://www.w3.org/1999/xlink" width="512" height="512" x="0" y="0" viewBox="0 0 24 24" style="enable-background:new 0 0 512 512" xml:space="preserve" class=""><g><path d="M20 22c-.2 0-.3 0-.4-.1L16 20.1l-3.6 1.8c-.3.1-.6.1-.9 0L8 20.1l-3.6 1.8c-.3.2-.7.1-1 0-.2-.2-.4-.6-.4-.9V5c0-1.7 1.3-3 3-3h12c1.7 0 3 1.3 3 3v16c0 .3-.2.7-.5.9-.1.1-.3.1-.5.1zM8 18c.2 0 .3 0 .4.1l3.6 1.8 3.6-1.8c.3-.1.6-.1.9 0l2.6 1.3V5c0-.6-.4-1-1-1H6c-.6 0-1 .4-1 1v14.4l2.6-1.3c.1-.1.2-.1.4-.1z" fill="#ffffff" opacity="1" data-original="#000000"></path><path d="M16 8H8c-.6 0-1-.5-1-1s.4-1 1-1h8c.6 0 1 .4 1 1s-.4 1-1 1zM16 12H8c-.6 0-1-.4-1-1s.4-1 1-1h8c.6 0 1 .4 1 1s-.4 1-1 1zM13 16H8c-.6 0-1-.4-1-1s.4-1 1-1h5c.6 0 1 .4 1 1s-.4 1-1 1z" fill="#ffffff" opacity="1" data-original="#000000"></path></g></svg>