<svg height="512" viewBox="0 0 128 128" width="512" xmlns="http://www.w3.org/2000/svg"><g id="first_aid_kit"><g><g fill="#607d8b"><path d="m36 25h-16c-.5522461 0-1 .4477539-1 1v4c0 .5522461.4477539 1 1 1h16c.5522461 0 1-.4477539 1-1v-4c0-.5522461-.4477539-1-1-1z"/><path d="m108 25h-16c-.5522461 0-1 .4477539-1 1v4c0 .5522461.4477539 1 1 1h16c.5522461 0 1-.4477539 1-1v-4c0-.5522461-.4477539-1-1-1z"/><path d="m76 9h-24c-4.9624023 0-9 4.0375977-9 9v12c0 .5522461.4477539 1 1 1h6c.5522461 0 1-.4477539 1-1v-12c0-.5327148.4672852-1 1-1h24c.5327148 0 1 .4672852 1 1v12c0 .5522461.4477539 1 1 1h6c.5522461 0 1-.4477539 1-1v-12c0-4.9624023-4.0375977-9-9-9z"/></g><path d="m112 29h-96c-7.168457 0-13 5.831543-13 13v64c0 7.168457 5.831543 13 13 13h96c7.168457 0 13-5.831543 13-13v-64c0-7.168457-5.831543-13-13-13z" fill="#ef5350"/><path d="m64 41c-18.1962891 0-33 14.8037109-33 33s14.8037109 33 33 33 33-14.8037109 33-33-14.8037109-33-33-33z" fill="#e0e0e0"/><path d="m84 67h-13v-13c0-.5522461-.4477539-1-1-1h-12c-.5522461 0-1 .4477539-1 1v13h-13c-.5522461 0-1 .4477539-1 1v12c0 .5522461.4477539 1 1 1h13v13c0 .5522461.4477539 1 1 1h12c.5522461 0 1-.4477539 1-1v-13h13c.5522461 0 1-.4477539 1-1v-12c0-.5522461-.4477539-1-1-1z" fill="#ef5350"/><g><path d="m8 57c-.5522461 0-1-.4477539-1-1v-14c0-.5522461.4477539-1 1-1s1 .4477539 1 1v14c0 .5522461-.4477539 1-1 1z" fill="#ef9a9a"/></g><g><path d="m8 67c-.5522461 0-1-.4477539-1-1v-4c0-.5522461.4477539-1 1-1s1 .4477539 1 1v4c0 .5522461-.4477539 1-1 1z" fill="#ef9a9a"/></g></g></g></svg>